<?xml version="1.0" encoding="UTF-8"?>
<svg xmlns="http://www.w3.org/2000/svg" viewBox="0 0 100 100">
  <path fill="#ffffff" d="M50,5C25.1,5,5,25.1,5,50s20.1,45,45,45s45-20.1,45-45S74.9,5,50,5z M74.3,74.3c-6.6,6.6-15.5,10.3-24.8,10.3
    c-9.3,0-18.2-3.7-24.8-10.3c-6.6-6.6-10.3-15.5-10.3-24.8c0-9.3,3.7-18.2,10.3-24.8c6.6-6.6,15.5-10.3,24.8-10.3
    c9.3,0,18.2,3.7,24.8,10.3c6.6,6.6,10.3,15.5,10.3,24.8C84.5,58.8,80.9,67.7,74.3,74.3z"/>
  <path fill="#ffffff" d="M50,15c-9.6,0-18.6,3.7-25.5,10.5C17.7,32.4,14,41.4,14,51c0,9.6,3.7,18.6,10.5,25.5
    C31.4,83.3,40.4,87,50,87c9.6,0,18.6-3.7,25.5-10.5C82.3,69.6,86,60.6,86,51c0-9.6-3.7-18.6-10.5-25.5C68.6,18.7,59.6,15,50,15z
     M68.2,68.2c-4.9,4.9-11.3,7.5-18.2,7.5c-6.9,0-13.4-2.7-18.2-7.5c-4.9-4.9-7.5-11.3-7.5-18.2c0-6.9,2.7-13.4,7.5-18.2
    c4.9-4.9,11.3-7.5,18.2-7.5c6.9,0,13.4,2.7,18.2,7.5c4.9,4.9,7.5,11.3,7.5,18.2C75.8,56.9,73.1,63.4,68.2,68.2z"/>
  <path fill="#ffffff" d="M50,25c-7.2,0-13.9,2.8-19.1,7.9C25.8,38.1,23,44.8,23,52c0,7.2,2.8,13.9,7.9,19.1
    c5.1,5.1,11.9,7.9,19.1,7.9c7.2,0,13.9-2.8,19.1-7.9c5.1-5.1,7.9-11.9,7.9-19.1c0-7.2-2.8-13.9-7.9-19.1C63.9,27.8,57.2,25,50,25z
     M62.1,62.1c-3.2,3.2-7.5,5-12.1,5c-4.6,0-8.9-1.8-12.1-5c-3.2-3.2-5-7.5-5-12.1c0-4.6,1.8-8.9,5-12.1c3.2-3.2,7.5-5,12.1-5
    c4.6,0,8.9,1.8,12.1,5c3.2,3.2,5,7.5,5,12.1C67.1,54.6,65.3,58.9,62.1,62.1z"/>
</svg>
