<?xml version="1.0" encoding="UTF-8"?>
<svg xmlns="http://www.w3.org/2000/svg" viewBox="0 0 100 100">
  <circle cx="50" cy="50" r="50" fill="#6B7ED9"/>
  <path fill="#FFFFFF" d="M50,15c-19.33,0-35,15.67-35,35s15.67,35,35,35s35-15.67,35-35S69.33,15,50,15z M50,77.5
    c-15.19,0-27.5-12.31-27.5-27.5S34.81,22.5,50,22.5S77.5,34.81,77.5,50S65.19,77.5,50,77.5z"/>
  <path fill="#FFFFFF" d="M50,20c-16.57,0-30,13.43-30,30s13.43,30,30,30s30-13.43,30-30S66.57,20,50,20z M50,70
    c-11.05,0-20-8.95-20-20s8.95-20,20-20s20,8.95,20,20S61.05,70,50,70z"/>
  <path fill="#FFFFFF" d="M50,30c-11.05,0-20,8.95-20,20s8.95,20,20,20s20-8.95,20-20S61.05,30,50,30z M50,62.5
    c-6.9,0-12.5-5.6-12.5-12.5S43.1,37.5,50,37.5S62.5,43.1,62.5,50S56.9,62.5,50,62.5z"/>
  <path fill="#FFFFFF" d="M73.5,41.5c-2.5-5-6.5-9-11.5-11.5c-2.5-1-5-1.5-7.5-1.5c-2.5,0-5,0.5-7.5,1.5c-5,2.5-9,6.5-11.5,11.5
    c-1,2.5-1.5,5-1.5,7.5c0,2.5,0.5,5,1.5,7.5c2.5,5,6.5,9,11.5,11.5c2.5,1,5,1.5,7.5,1.5c2.5,0,5-0.5,7.5-1.5c5-2.5,9-6.5,11.5-11.5
    c1-2.5,1.5-5,1.5-7.5C75,46.5,74.5,44,73.5,41.5z M50,65c-8.28,0-15-6.72-15-15s6.72-15,15-15s15,6.72,15,15S58.28,65,50,65z"/>
</svg>
