<?xml version="1.0" encoding="UTF-8"?>
<svg xmlns="http://www.w3.org/2000/svg" viewBox="0 0 100 100">
  <circle cx="50" cy="50" r="50" fill="#6366F1"/>
  <path fill="#FFFFFF" d="M50,15c-19.33,0-35,15.67-35,35s15.67,35,35,35s35-15.67,35-35S69.33,15,50,15z M50,77.5
    c-15.19,0-27.5-12.31-27.5-27.5S34.81,22.5,50,22.5S77.5,34.81,77.5,50S65.19,77.5,50,77.5z"/>
  <path fill="#FFFFFF" d="M73.76,40.54c-2.7-4.68-6.98-8.23-12.1-10.04c-1.74-0.62-3.55-1.01-5.41-1.17
    c-0.75-0.07-1.5-0.1-2.25-0.1c-6.35,0-12.34,2.47-16.83,6.96c-4.49,4.49-6.96,10.48-6.96,16.83c0,0.75,0.03,1.5,0.1,2.25
    c0.16,1.86,0.55,3.67,1.17,5.41c1.81,5.12,5.36,9.4,10.04,12.1c3.66,2.11,7.83,3.22,12.05,3.22c0.75,0,1.5-0.03,2.25-0.1
    c1.86-0.16,3.67-0.55,5.41-1.17c5.12-1.81,9.4-5.36,12.1-10.04c2.11-3.66,3.22-7.83,3.22-12.05c0-0.75-0.03-1.5-0.1-2.25
    c-0.16-1.86-0.55-3.67-1.17-5.41C76.98,44.37,75.87,42.37,73.76,40.54z"/>
  <path fill="#6366F1" d="M50,27.5c-12.43,0-22.5,10.07-22.5,22.5S37.57,72.5,50,72.5S72.5,62.43,72.5,50S62.43,27.5,50,27.5z
    M50,65c-8.28,0-15-6.72-15-15s6.72-15,15-15s15,6.72,15,15S58.28,65,50,65z"/>
  <path fill="#FFFFFF" d="M50,30c-11.05,0-20,8.95-20,20s8.95,20,20,20s20-8.95,20-20S61.05,30,50,30z M50,62.5
    c-6.9,0-12.5-5.6-12.5-12.5S43.1,37.5,50,37.5S62.5,43.1,62.5,50S56.9,62.5,50,62.5z"/>
  <path fill="#6366F1" d="M67.32,32.68c-9.7-9.7-25.44-9.7-35.14,0c-9.7,9.7-9.7,25.44,0,35.14c9.7,9.7,25.44,9.7,35.14,0
    C77.02,58.12,77.02,42.38,67.32,32.68z M64.39,64.39c-7.95,7.95-20.84,7.95-28.79,0c-7.95-7.95-7.95-20.84,0-28.79
    c7.95-7.95,20.84-7.95,28.79,0C72.34,43.55,72.34,56.44,64.39,64.39z"/>
</svg>
