<?xml version="1.0" encoding="UTF-8"?>
<svg xmlns="http://www.w3.org/2000/svg" viewBox="0 0 100 100">
  <path fill="#ffffff" d="M50,5C25.2,5,5,25.2,5,50s20.2,45,45,45s45-20.2,45-45S74.8,5,50,5z M50,85c-19.3,0-35-15.7-35-35
    s15.7-35,35-35s35,15.7,35,35S69.3,85,50,85z"/>
  <path fill="#ffffff" d="M50,20c-16.5,0-30,13.5-30,30s13.5,30,30,30s30-13.5,30-30S66.5,20,50,20z M50,70c-11,0-20-9-20-20
    s9-20,20-20s20,9,20,20S61,70,50,70z"/>
  <path fill="#ffffff" d="M68.5,38.5c-4.1-7.2-11.8-12-20.6-12c-0.6,0-1.3,0-1.9,0.1c-7.2,0.5-13.6,4.3-17.5,10.1
    c-1.9,2.9-3.1,6.2-3.4,9.8c-0.5,5.7,1.2,11.2,4.7,15.5c3.5,4.3,8.5,7.1,14.2,7.7c0.6,0.1,1.3,0.1,1.9,0.1c5.7,0,11-2.2,15-6.1
    c4-4,6.3-9.3,6.3-15c0-3.6-0.9-7-2.5-10C70.2,40.9,69.4,39.6,68.5,38.5z M62.3,62.3c-3.3,3.3-7.7,5.1-12.3,5.1
    c-0.5,0-1,0-1.5-0.1c-4.7-0.4-8.9-2.8-11.8-6.4c-2.9-3.6-4.3-8.1-3.9-12.8c0.3-3,1.3-5.7,2.8-8.1c3.2-4.8,8.5-7.9,14.5-8.3
    c0.5,0,1,0,1.5,0c7.3,0,13.7,4,17.1,9.9c0.7,1,1.3,2,1.8,3.1c1.3,2.5,2.1,5.3,2.1,8.3C72.5,54.6,70.7,59,62.3,62.3z"/>
  <path fill="#ffffff" d="M50,35c-8.3,0-15,6.7-15,15s6.7,15,15,15s15-6.7,15-15S58.3,35,50,35z M50,60c-5.5,0-10-4.5-10-10
    s4.5-10,10-10s10,4.5,10,10S55.5,60,50,60z"/>
</svg>
